<svg width="45" height="45" viewBox="0 0 45 45" fill="none" xmlns="http://www.w3.org/2000/svg">
<path d="M45 5.34544C43.3451 6.22414 41.5443 6.85653 39.6893 7.10283C41.6152 5.69449 43.0574 3.46955 43.7453 0.845441C41.9382 2.16874 39.9584 3.09666 37.8939 3.58804C37.031 2.45257 35.9874 1.548 34.8281 0.930698C33.6688 0.313397 32.4186 -0.00340684 31.1555 2.76284e-05C26.0449 2.76284e-05 21.9349 5.09914 21.9349 11.3565C21.9349 12.2352 22.0214 13.1139 22.162 13.9593C14.5097 13.4667 7.68477 8.96674 3.14746 2.07695C2.32071 3.81514 1.88747 5.79428 1.8928 7.80845C1.8928 11.7493 3.52061 15.2241 6.00288 17.2678C4.54004 17.1969 3.11146 16.7019 1.83331 15.8232V15.963C1.83331 21.4815 5.0024 26.0547 9.22606 27.1065C8.43302 27.3601 7.61721 27.4898 6.79786 27.4926C6.19757 27.4926 5.62973 27.4194 5.05648 27.3195C6.22461 31.8195 9.62625 35.088 13.6768 35.1945C10.5078 38.25 6.53828 40.0473 2.2281 40.0473C1.45475 40.0473 0.740897 40.0141 0 39.9075C4.08845 43.1361 8.93943 45 14.1636 45C31.1231 45 40.4032 27.7056 40.4032 12.6945C40.4032 12.2019 40.4032 11.7093 40.3762 11.2167C42.1716 9.59913 43.7453 7.59544 45 5.34544Z" fill="black"/>
</svg>
