<svg width="200" height="155.912" viewBox="0 0 200 155.912" class="css-1j8o68f"><path d="M26.378 131.752a5.487 5.487 0 0 1-5.487-5.487V30.837c0-3.03 1.157-5.025 3.777-6.542L64.393 1.333c2.62-1.517 4.927-1.517 7.553 0l18.83 10.884c2.62 1.517 3.776 3.513 3.776 6.542v107.506a5.487 5.487 0 0 1-10.975 0V20.739l-15.408-8.91-36.303 20.982v93.464a5.487 5.487 0 0 1-5.488 5.488zm0 24.156a5.432 5.432 0 0 1-2.824-.78L3.772 143.695c-2.62-1.517-3.771-3.518-3.771-6.541V18.759c0-3.024 1.151-5.025 3.771-6.542L23.554.785a5.488 5.488 0 1 1 5.487 9.506l-18.07 10.437v114.446l18.065 10.442a5.487 5.487 0 0 1-2.658 10.292zm20.896 0a5.487 5.487 0 0 1-5.488-5.488V91.226c0-3.024 1.157-5.025 3.777-6.537l19.84-11.486a5.487 5.487 0 0 1 8.232 4.745l.022 60.4a5.487 5.487 0 0 1-10.975 0V87.47l-9.92 5.735v57.215a5.487 5.487 0 0 1-5.488 5.488zm0-84.545a5.487 5.487 0 0 1-5.482-5.487V42.909c0-3.023 1.156-5.02 3.776-6.537l19.836-11.486a5.487 5.487 0 0 1 8.231 4.745l.027 24.167a5.487 5.487 0 0 1-10.975 0v-14.65l-9.92 5.735v20.993a5.487 5.487 0 0 1-5.488 5.487zm131.828 53.707c0 3.03-1.151 5.03-3.766 6.526l-39.73 22.983c-1.313.759-2.545 1.135-3.777 1.135s-2.47-.376-3.776-1.13l-18.835-10.889c-2.62-1.517-3.772-3.518-3.772-6.541V18.759c0-3.024 1.152-5.025 3.772-6.542L128.999.785a5.488 5.488 0 1 1 5.488 9.506l-18.071 10.437v114.446l15.408 8.909 36.303-20.982v-17.823l-9.92-5.735v14.644a5.487 5.487 0 0 1-10.975 0l-.022-24.15a5.487 5.487 0 0 1 8.231-4.756l19.89 11.48c2.62 1.518 3.771 3.514 3.771 6.542v21.767zm-52.76-94.233c0-3.024 1.151-5.03 3.766-6.542l39.73-22.967c1.313-.753 2.545-1.135 3.777-1.135s2.464.376 3.776 1.135l18.83 10.889c2.625 1.512 3.777 3.513 3.777 6.536v45.928c0 3.03-1.152 5.025-3.766 6.542l-19.788 11.432a5.488 5.488 0 1 1-5.487-9.506l18.071-10.437V20.733l-15.408-8.909-36.303 20.982v93.464a5.487 5.487 0 0 1-10.975 0V30.842zm23.725 30.234 18.06-10.447V39.148l-12.583 7.274a5.487 5.487 0 0 1-8.312-4.702c0-2.071 1.162-3.836 2.83-4.804l20.787-12.03a5.487 5.487 0 0 1 8.232 4.745l.021 22.973c0 3.023-1.151 5.024-3.777 6.536l-19.781 11.438a5.487 5.487 0 1 1-5.482-9.507zm44.443 23.467a5.486 5.486 0 0 1 5.488 5.488v47.117c0 3.023-1.152 5.025-3.777 6.542l-19.782 11.432a5.488 5.488 0 1 1-5.487-9.506l18.07-10.437V90.026a5.49 5.49 0 0 1 5.488-5.488z"/></svg>