<svg width="43" height="43" viewBox="0 0 43 43" fill="none" xmlns="http://www.w3.org/2000/svg">
<path d="M30.781 10.2034L10.1229 11.3227C9.96487 11.3318 9.81652 11.3967 9.70412 11.5091L7.15344 14.0598C6.94016 14.273 7.11627 14.6451 7.42068 14.6268L26.5712 13.5909L9.70501 30.4571C9.57819 30.5839 9.58169 30.7949 9.71279 30.926L11.5004 32.7136C11.6315 32.8447 11.8425 32.8482 11.9693 32.7214L28.8327 15.8581L27.7968 35.0086C27.7814 35.316 28.1505 35.4891 28.3638 35.2759L31.0009 32.6387C31.0557 32.5839 31.0896 32.5083 31.0912 32.4292L32.223 11.6454C32.2331 11.4559 32.2023 11.2652 32.1328 11.086C32.0632 10.9067 31.9565 10.7433 31.8198 10.6066C31.6831 10.4699 31.5197 10.3632 31.3405 10.2936C31.1612 10.2241 30.9705 10.1933 30.781 10.2034Z" fill="#232323"/>
</svg>
